<?xml version="1.0" encoding="utf-8"?>
<!-- Generator: Adobe Illustrator 15.1.0, SVG Export Plug-In . SVG Version: 6.00 Build 0)  -->
<!DOCTYPE svg PUBLIC "-//W3C//DTD SVG 1.1//EN" "http://www.w3.org/Graphics/SVG/1.1/DTD/svg11.dtd">
<svg version="1.1" id="Layer_1" xmlns="http://www.w3.org/2000/svg" xmlns:xlink="http://www.w3.org/1999/xlink" x="0px" y="0px"
	 width="94.667px" height="84.667px" viewBox="0 0 94.667 84.667" enable-background="new 0 0 94.667 84.667" xml:space="preserve">
<rect fill="#FFFFFF" width="94.667" height="84.667"/>
<g>
	<polygon fill="#E31837" points="5.842,11.742 16.193,11.742 16.193,12.336 12.686,12.341 18.202,25.764 23.933,12.336 
		20.426,12.336 20.426,11.742 26.927,11.742 26.927,12.336 24.617,12.336 16.533,31.491 8.751,12.336 5.842,12.336 	"/>
	<path fill="#E31837" d="M28.221,21.845c0,0.237-0.006,0.481-0.018,0.73c-0.013,0.25-0.019,0.564-0.019,0.945
		c0,0.784,0.047,1.603,0.142,2.458c0.096,0.855,0.303,1.627,0.624,2.316c0.321,0.689,0.796,1.259,1.426,1.709
		c0.63,0.451,1.467,0.677,2.512,0.677c1.046,0,1.907-0.153,2.584-0.462c0.677-0.309,1.212-0.684,1.604-1.123
		c0.392-0.439,0.682-0.886,0.873-1.337c0.19-0.451,0.333-0.82,0.428-1.105l0.534,0.108c-0.07,0.261-0.208,0.635-0.41,1.122
		c-0.202,0.487-0.522,0.974-0.962,1.461c-0.44,0.487-1.034,0.912-1.782,1.275c-0.749,0.362-1.717,0.543-2.904,0.543
		c-1.188,0-2.288-0.189-3.297-0.569c-1.01-0.379-1.883-0.925-2.619-1.637c-0.737-0.71-1.308-1.559-1.711-2.543
		c-0.404-0.983-0.606-2.08-0.606-3.291c0-1.043,0.208-2.057,0.624-3.042c0.416-0.984,0.987-1.856,1.712-2.614
		c0.726-0.759,1.576-1.37,2.552-1.833c0.974-0.462,2.02-0.693,3.139-0.693c0.666,0,1.379,0.118,2.14,0.356
		c0.761,0.237,1.468,0.622,2.122,1.156c0.655,0.534,1.202,1.24,1.642,2.118c0.439,0.879,0.66,1.97,0.66,3.275H28.221z
		 M35.572,21.325c0.05-0.332,0.074-0.64,0.074-0.925v-0.888c0-0.807-0.077-1.471-0.232-1.992c-0.155-0.522-0.368-0.936-0.643-1.245
		c-0.274-0.308-0.606-0.527-0.998-0.657c-0.393-0.13-0.815-0.196-1.267-0.196c-0.81,0-1.476,0.16-1.999,0.481
		c-0.523,0.32-0.94,0.752-1.249,1.297c-0.31,0.545-0.542,1.174-0.696,1.885c-0.155,0.711-0.256,1.458-0.304,2.24H35.572z"/>
	<path fill="#E31837" d="M40.957,30.182h2.744V15.905h-2.744v-0.521h5.751v3.824l0.074,0.006c0.142-0.308,0.35-0.7,0.623-1.175
		c0.273-0.474,0.648-0.936,1.123-1.388c0.476-0.451,1.069-0.837,1.78-1.158c0.713-0.32,1.58-0.48,2.602-0.48
		c1.566,0,2.844,0.38,3.828,1.139c0.986,0.76,1.479,1.97,1.479,3.632v10.397h2.744v0.498h-8.569v-0.498h2.745V18.669
		c0-0.927-0.221-1.688-0.659-2.282c-0.438-0.593-1.118-0.891-2.043-0.891c-0.759,0-1.479,0.166-2.168,0.5
		c-0.687,0.332-1.291,0.796-1.812,1.389c-0.522,0.594-0.932,1.296-1.228,2.104c-0.296,0.807-0.444,1.687-0.444,2.637v8.056h2.744
		v0.498h-8.569L40.957,30.182L40.957,30.182z"/>
	<path fill="#E31837" d="M71.63,4.99h5.826v25.191h2.744v0.499h-5.75v-3.114h-0.074c-0.096,0.286-0.238,0.629-0.43,1.033
		c-0.189,0.404-0.47,0.796-0.837,1.174c-0.368,0.381-0.832,0.707-1.39,0.979c-0.559,0.272-1.242,0.409-2.051,0.409
		c-1.045,0-2.035-0.225-2.976-0.675c-0.938-0.451-1.764-1.057-2.479-1.815c-0.711-0.758-1.275-1.63-1.69-2.614
		c-0.416-0.985-0.624-2.023-0.624-3.114c0-1.067,0.202-2.087,0.605-3.059c0.402-0.972,0.949-1.821,1.639-2.544
		c0.688-0.724,1.484-1.305,2.389-1.744c0.901-0.438,1.863-0.658,2.885-0.658c1.308,0,2.365,0.32,3.172,0.96
		c0.808,0.638,1.379,1.42,1.711,2.344l0.088-0.007L74.375,5.489H71.63V4.99z M65.466,22.517c0,1.236,0.033,2.359,0.104,3.369
		c0.07,1.01,0.249,1.872,0.535,2.585c0.283,0.713,0.711,1.259,1.281,1.639c0.571,0.382,1.343,0.57,2.317,0.57
		c0.996,0,1.799-0.214,2.405-0.642c0.606-0.427,1.074-0.98,1.407-1.658c0.334-0.677,0.559-1.432,0.678-2.263
		c0.118-0.832,0.18-1.64,0.18-2.424c0-0.928-0.02-1.729-0.055-2.406c-0.035-0.678-0.102-1.278-0.195-1.801
		c-0.095-0.523-0.227-0.974-0.393-1.355c-0.167-0.381-0.367-0.737-0.605-1.07c-0.356-0.475-0.82-0.867-1.392-1.176
		c-0.569-0.308-1.294-0.463-2.173-0.463c-0.832,0-1.516,0.166-2.051,0.499c-0.533,0.333-0.949,0.808-1.246,1.426
		c-0.297,0.618-0.506,1.36-0.625,2.228C65.525,20.443,65.466,21.424,65.466,22.517"/>
	<path fill="#E31837" d="M82.001,30.182h2.744V15.905h-2.744v-0.521h5.826v14.797h2.742v0.498h-8.568V30.182z M84.3,9.501
		c0-0.524,0.186-0.971,0.553-1.34c0.369-0.369,0.816-0.554,1.341-0.554c0.525,0,0.972,0.185,1.341,0.554
		c0.368,0.369,0.553,0.816,0.553,1.34s-0.185,0.971-0.553,1.34c-0.369,0.369-0.815,0.553-1.341,0.553
		c-0.524,0-0.972-0.184-1.341-0.553C84.486,10.472,84.3,10.025,84.3,9.501"/>
</g>
<path id="_x32_08x128_Solid" fill="#010101" d="M72.369,79.333H24.045c-2.245,0-4.072-1.826-4.072-4.071V48.658
	c0-2.244,1.827-4.072,4.072-4.072h48.322c2.245,0,4.072,1.828,4.072,4.072v26.604C76.44,77.507,74.613,79.333,72.369,79.333z
	 M33.547,71.19V60.603l5.43,6.787l5.429-6.787V71.19h5.43V52.73h-5.43l-5.429,6.787l-5.43-6.787h-5.43v18.46H33.547z M69.923,61.96
	h-5.43v-9.23h-5.43v9.23h-5.43l8.145,9.5L69.923,61.96z"/>
</svg>
